# xmcd CD database file
#
# Track frame offsets:
#	150
#	6707
#	30045
#	47840
#	70577
#	90470
#	102560
#	136625
#	147027
#	168442
#	184585
#
# Disc length: 2758 seconds
#
# Revision: 0
# Processed by: cddbd v1.4PL0 Copyright (c) Steve Scherf et al.
# Submitted via: CDex 1.50beta10
#
DISCID=850ac40b
DTITLE=Various Artist - The Prestige Jazz Sampler
DYEAR=1900
DGENRE=Jazz
TTITLE0=Mose Allison/A Young Man
TTITLE1=Arnett Cobb/Go Power
TTITLE2=Roland Kirk/Kirk's Work
TTITLE3=Miles Davis and The Modern Jazz Giants/Airegin
TTITLE4=Tal Farlow/Darn That Dream
TTITLE5=Annie Ross/Twisted
TTITLE6=Art Blakey and The Jazz Messengers/I Can't Get Started
TTITLE7=Eddie Jefferson/There I Go, There I Go Again
TTITLE8=Sonny Criss/I Thought About You
TTITLE9=Gene Ammons/Savoy
TTITLE10=John Coltrane/Like Someone In Love
EXTD=
EXTT0=
EXTT1=
EXTT2=
EXTT3=
EXTT4=
EXTT5=
EXTT6=
EXTT7=
EXTT8=
EXTT9=
EXTT10=
PLAYORDER=
